HIERARCHY
ROOT mixamorig:Hips
{
	OFFSET 0.000000 201.639420 0.000000
	CHANNELS 6 Xposition Yposition Zposition Xrotation Yrotation Zrotation
	JOINT mixamorig:Spine
	{
		OFFSET 0.006200 19.524994 -2.481800
		CHANNELS 3 Xrotation Yrotation Zrotation
		JOINT mixamorig:Spine1
		{
			OFFSET -0.000900 22.835007 -2.825400
			CHANNELS 3 Xrotation Yrotation Zrotation
			JOINT mixamorig:Spine2
			{
				OFFSET -0.020600 26.552490 -3.193300
				CHANNELS 3 Xrotation Yrotation Zrotation
				JOINT mixamorig:Neck
				{
					OFFSET -0.060000 30.701813 1.352200
					CHANNELS 3 Xrotation Yrotation Zrotation
					JOINT mixamorig:Head
					{
						OFFSET -0.087200 22.547607 3.670900
						CHANNELS 3 Xrotation Yrotation Zrotation
						JOINT mixamorig:HeadTop_End
						{
							OFFSET -0.830600 40.355194 7.893500
							CHANNELS 3 Xrotation Yrotation Zrotation
							End Site
							{
								OFFSET 0.000000 30.592346 0.000000
							}
						}
						JOINT mixamorig:RightEye
						{
							OFFSET -6.302100 18.118591 16.197100
							CHANNELS 3 Xrotation Yrotation Zrotation
							End Site
							{
								OFFSET 0.000000 30.592346 0.000000
							}
						}
						JOINT mixamorig:LeftEye
						{
							OFFSET 6.741500 18.382690 16.401899
							CHANNELS 3 Xrotation Yrotation Zrotation
							End Site
							{
								OFFSET 0.000000 30.592346 0.000000
							}
						}
					}
				}
				JOINT mixamorig:LeftShoulder
				{
					OFFSET 11.924900 18.230499 1.425400
					CHANNELS 3 Xrotation Yrotation Zrotation
					JOINT mixamorig:LeftArm
					{
						OFFSET 25.435989 -0.697632 -5.229300
						CHANNELS 3 Xrotation Yrotation Zrotation
						JOINT mixamorig:LeftForeArm
						{
							OFFSET 54.684776 0.000000 0.000000
							CHANNELS 3 Xrotation Yrotation Zrotation
							JOINT mixamorig:LeftHand
							{
								OFFSET 55.098175 0.000000 0.000000
								CHANNELS 3 Xrotation Yrotation Zrotation
								JOINT mixamorig:LeftHandMiddle1
								{
									OFFSET 23.369751 0.000000 0.000000
									CHANNELS 3 Xrotation Yrotation Zrotation
									JOINT mixamorig:LeftHandMiddle2
									{
										OFFSET 6.378677 0.000000 0.000000
										CHANNELS 3 Xrotation Yrotation Zrotation
										JOINT mixamorig:LeftHandMiddle3
										{
											OFFSET 6.148331 0.000000 0.000000
											CHANNELS 3 Xrotation Yrotation Zrotation
											JOINT mixamorig:LeftHandMiddle4
											{
												OFFSET 6.582504 0.000000 0.000000
												CHANNELS 3 Xrotation Yrotation Zrotation
												End Site
												{
													OFFSET -1.168900 6.395691 1.028606
												}
											}
										}
									}
								}
								JOINT mixamorig:LeftHandThumb1
								{
									OFFSET 7.235672 -3.848206 5.434273
									CHANNELS 3 Xrotation Yrotation Zrotation
									JOINT mixamorig:LeftHandThumb2
									{
										OFFSET 6.568451 -3.792297 3.792300
										CHANNELS 3 Xrotation Yrotation Zrotation
										JOINT mixamorig:LeftHandThumb3
										{
											OFFSET 6.063080 -3.500519 3.500518
											CHANNELS 3 Xrotation Yrotation Zrotation
											JOINT mixamorig:LeftHandThumb4
											{
												OFFSET 4.793182 -2.767334 2.767349
												CHANNELS 3 Xrotation Yrotation Zrotation
												End Site
												{
													OFFSET 0.101639 6.054260 1.275483
												}
											}
										}
									}
								}
								JOINT mixamorig:LeftHandIndex1
								{
									OFFSET 23.101074 -0.309540 4.992809
									CHANNELS 3 Xrotation Yrotation Zrotation
									JOINT mixamorig:LeftHandIndex2
									{
										OFFSET 6.226883 0.000000 0.000000
										CHANNELS 3 Xrotation Yrotation Zrotation
										JOINT mixamorig:LeftHandIndex3
										{
											OFFSET 6.094330 0.000000 0.000000
											CHANNELS 3 Xrotation Yrotation Zrotation
											JOINT mixamorig:LeftHandIndex4
											{
												OFFSET 5.482605 0.000000 0.000000
												CHANNELS 3 Xrotation Yrotation Zrotation
												End Site
												{
													OFFSET -1.427902 5.233032 0.797164
												}
											}
										}
									}
								}
								JOINT mixamorig:LeftHandRing1
								{
									OFFSET 22.299240 0.021149 -3.964172
									CHANNELS 3 Xrotation Yrotation Zrotation
									JOINT mixamorig:LeftHandRing2
									{
										OFFSET 6.321869 0.000000 0.000000
										CHANNELS 3 Xrotation Yrotation Zrotation
										JOINT mixamorig:LeftHandRing3
										{
											OFFSET 5.899796 0.000000 0.000000
											CHANNELS 3 Xrotation Yrotation Zrotation
											JOINT mixamorig:LeftHandRing4
											{
												OFFSET 6.517899 0.000000 0.000000
												CHANNELS 3 Xrotation Yrotation Zrotation
												End Site
												{
													OFFSET -1.637299 6.232208 0.980890
												}
											}
										}
									}
								}
								JOINT mixamorig:LeftHandPinky1
								{
									OFFSET 20.463791 -0.302338 -8.562233
									CHANNELS 3 Xrotation Yrotation Zrotation
									JOINT mixamorig:LeftHandPinky2
									{
										OFFSET 6.908646 0.000000 0.000000
										CHANNELS 3 Xrotation Yrotation Zrotation
										JOINT mixamorig:LeftHandPinky3
										{
											OFFSET 4.622849 0.000000 0.000000
											CHANNELS 3 Xrotation Yrotation Zrotation
											JOINT mixamorig:LeftHandPinky4
											{
												OFFSET 5.216080 0.000000 0.000000
												CHANNELS 3 Xrotation Yrotation Zrotation
												End Site
												{
													OFFSET -0.606308 5.116241 0.814926
												}
											}
										}
									}
								}
							}
						}
					}
				}
				JOINT mixamorig:RightShoulder
				{
					OFFSET -12.001300 18.284088 1.348900
					CHANNELS 3 Xrotation Yrotation Zrotation
					JOINT mixamorig:RightArm
					{
						OFFSET -25.308500 -0.751312 -5.164599
						CHANNELS 3 Xrotation Yrotation Zrotation
						JOINT mixamorig:RightForeArm
						{
							OFFSET -54.684429 0.000000 0.000000
							CHANNELS 3 Xrotation Yrotation Zrotation
							JOINT mixamorig:RightHand
							{
								OFFSET -55.150291 0.000000 0.000000
								CHANNELS 3 Xrotation Yrotation Zrotation
								JOINT mixamorig:RightHandMiddle1
								{
									OFFSET -23.317566 0.000000 0.000000
									CHANNELS 3 Xrotation Yrotation Zrotation
									JOINT mixamorig:RightHandMiddle2
									{
										OFFSET -6.378403 0.000000 0.000000
										CHANNELS 3 Xrotation Yrotation Zrotation
										JOINT mixamorig:RightHandMiddle3
										{
											OFFSET -6.148193 0.000000 0.000000
											CHANNELS 3 Xrotation Yrotation Zrotation
											JOINT mixamorig:RightHandMiddle4
											{
												OFFSET -6.583389 0.000000 0.000000
												CHANNELS 3 Xrotation Yrotation Zrotation
												End Site
												{
													OFFSET 1.171692 6.395905 1.029786
												}
											}
										}
									}
								}
								JOINT mixamorig:RightHandThumb1
								{
									OFFSET -7.190521 -3.860474 5.435846
									CHANNELS 3 Xrotation Yrotation Zrotation
									JOINT mixamorig:RightHandThumb2
									{
										OFFSET -6.567429 -3.791718 3.791708
										CHANNELS 3 Xrotation Yrotation Zrotation
										JOINT mixamorig:RightHandThumb3
										{
											OFFSET -6.062469 -3.500153 3.500166
											CHANNELS 3 Xrotation Yrotation Zrotation
											JOINT mixamorig:RightHandThumb4
											{
												OFFSET -4.792618 -2.767029 2.767022
												CHANNELS 3 Xrotation Yrotation Zrotation
												End Site
												{
													OFFSET -0.100327 6.053253 1.276754
												}
											}
										}
									}
								}
								JOINT mixamorig:RightHandIndex1
								{
									OFFSET -23.048981 -0.310791 4.992554
									CHANNELS 3 Xrotation Yrotation Zrotation
									JOINT mixamorig:RightHandIndex2
									{
										OFFSET -6.227539 0.000000 0.000000
										CHANNELS 3 Xrotation Yrotation Zrotation
										JOINT mixamorig:RightHandIndex3
										{
											OFFSET -6.095047 0.000000 0.000000
											CHANNELS 3 Xrotation Yrotation Zrotation
											JOINT mixamorig:RightHandIndex4
											{
												OFFSET -5.484772 0.000000 0.000000
												CHANNELS 3 Xrotation Yrotation Zrotation
												End Site
												{
													OFFSET 1.420593 5.237305 0.797056
												}
											}
										}
									}
								}
								JOINT mixamorig:RightHandRing1
								{
									OFFSET -22.246323 0.020569 -3.963762
									CHANNELS 3 Xrotation Yrotation Zrotation
									JOINT mixamorig:RightHandRing2
									{
										OFFSET -6.322128 0.000000 0.000000
										CHANNELS 3 Xrotation Yrotation Zrotation
										JOINT mixamorig:RightHandRing3
										{
											OFFSET -5.900024 0.000000 0.000000
											CHANNELS 3 Xrotation Yrotation Zrotation
											JOINT mixamorig:RightHandRing4
											{
												OFFSET -6.518356 0.000000 0.000000
												CHANNELS 3 Xrotation Yrotation Zrotation
												End Site
												{
													OFFSET 1.636398 6.232697 0.982186
												}
											}
										}
									}
								}
								JOINT mixamorig:RightHandPinky1
								{
									OFFSET -20.411011 -0.303314 -8.561701
									CHANNELS 3 Xrotation Yrotation Zrotation
									JOINT mixamorig:RightHandPinky2
									{
										OFFSET -6.907349 0.000000 0.000000
										CHANNELS 3 Xrotation Yrotation Zrotation
										JOINT mixamorig:RightHandPinky3
										{
											OFFSET -4.623840 0.000000 0.000000
											CHANNELS 3 Xrotation Yrotation Zrotation
											JOINT mixamorig:RightHandPinky4
											{
												OFFSET -5.218353 0.000000 0.000000
												CHANNELS 3 Xrotation Yrotation Zrotation
												End Site
												{
													OFFSET 0.602097 5.118835 0.816273
												}
											}
										}
									}
								}
							}
						}
					}
				}
			}
		}
	}
	JOINT mixamorig:LeftUpLeg
	{
		OFFSET 18.168400 -13.561905 -0.039000
		CHANNELS 3 Xrotation Yrotation Zrotation
		JOINT mixamorig:LeftLeg
		{
			OFFSET 0.577358 -80.825211 -3.695000
			CHANNELS 3 Xrotation Yrotation Zrotation
			JOINT mixamorig:LeftFoot
			{
				OFFSET -0.577356 -83.370262 -6.520700
				CHANNELS 3 Xrotation Yrotation Zrotation
				JOINT mixamorig:LeftToeBase
				{
					OFFSET 0.750401 -20.798306 25.135401
					CHANNELS 3 Xrotation Yrotation Zrotation
					JOINT mixamorig:LeftToe_End
					{
						OFFSET -0.000500 0.001200 19.917799
						CHANNELS 3 Xrotation Yrotation Zrotation
						End Site
						{
							OFFSET 0.000000 19.917805 0.000000
						}
					}
				}
			}
		}
	}
	JOINT mixamorig:RightUpLeg
	{
		OFFSET -18.162500 -13.585098 -0.041000
		CHANNELS 3 Xrotation Yrotation Zrotation
		JOINT mixamorig:RightLeg
		{
			OFFSET -0.595024 -80.945297 -3.631900
			CHANNELS 3 Xrotation Yrotation Zrotation
			JOINT mixamorig:RightFoot
			{
				OFFSET 0.595024 -83.218193 -6.561200
				CHANNELS 3 Xrotation Yrotation Zrotation
				JOINT mixamorig:RightToeBase
				{
					OFFSET -0.753601 -20.807106 25.115000
					CHANNELS 3 Xrotation Yrotation Zrotation
					JOINT mixamorig:RightToe_End
					{
						OFFSET 0.000299 0.001700 19.918200
						CHANNELS 3 Xrotation Yrotation Zrotation
						End Site
						{
							OFFSET 0.000000 19.918203 0.000000
						}
					}
				}
			}
		}
	}
}
MOTION
Frames: 4
Frame Time: 0.033333
6.571933 191.861221 0.861946 -14.147320 14.422590 3.511131 1.689057 2.729246 -0.748015 3.294997 4.413133 1.049728 3.221448 4.463089 1.056979 10.000266 -2.952824 2.662931 -14.461298 -9.363038 -9.163562 -0.000001 0.000000 -0.000000 -0.000001 0.000000 -0.000000 -0.000001 0.000000 -0.000000 1.049635 -11.320873 -11.504899 38.198113 2.547758 -61.210605 0.000151 -85.457742 0.000117 3.732645 1.733238 5.371066 -0.000009 -0.001931 0.015968 0.000010 0.001927 -0.015959 -0.000003 0.000007 -0.000003 0.000002 0.000001 0.000003 -1.540037 3.690188 6.142361 3.939035 7.948706 0.746811 -0.579466 1.574997 2.538715 0.000002 0.000001 0.000000 -0.000006 0.000004 0.000001 -0.000009 0.000011 -0.000037 0.000002 0.000009 0.000009 0.000000 -0.000003 -0.000002 -0.000004 0.000004 0.000002 -0.000012 -0.000004 -0.000026 0.000001 -0.000003 -0.000001 0.000000 -0.000001 0.000002 -0.018087 4.054251 0.511063 -0.018101 -4.054263 -0.511074 0.000001 0.000004 -0.000004 0.000000 -0.000003 0.000001 0.563034 -2.011228 11.507635 22.375126 23.190500 44.996771 0.000054 83.569017 -0.000019 11.044165 -2.979606 1.268179 -0.000010 0.000014 0.000010 0.000003 -0.000011 0.000003 0.000003 -0.000008 0.000001 0.000001 -0.000002 -0.000002 -1.849259 -3.581779 -6.586123 4.637208 -8.634139 -0.225422 -1.273750 0.137308 -2.094886 0.000000 -0.000001 0.000001 -0.000007 0.000001 -0.000002 -0.000004 0.000006 0.000027 0.000001 -0.000011 -0.000016 0.000002 -0.000003 -0.000002 -0.000013 0.000006 0.000014 0.000011 0.000011 0.000036 0.000001 -0.000003 0.000001 0.000001 -0.000001 0.000001 -0.000009 0.000005 0.000009 -0.000001 0.000007 0.000073 0.000005 -0.000001 -0.000016 -0.000002 -0.000000 -0.000002 -11.282276 6.017375 16.859180 33.202465 -9.287310 -3.958734 -6.317113 -4.765975 -7.074204 -8.263911 0.000008 -0.000002 -0.000000 0.000001 0.000000 2.558016 -19.395089 -19.313593 24.645590 9.730562 5.422017 -14.433933 -10.271548 7.781658 -3.601774 -0.000002 0.000002 -0.000000 -0.000001 0.000000 
5.707749 191.529953 1.047764 -14.040972 12.614262 2.890261 1.918326 2.171107 -0.762581 3.650678 3.418784 1.111217 3.604746 3.462246 1.117765 10.067655 -2.098899 2.164626 -15.095215 -4.797650 -9.389673 -0.000001 -0.000000 -0.000000 -0.000001 -0.000000 -0.000000 -0.000001 -0.000000 -0.000000 1.087183 -11.744584 -11.583506 37.508677 3.044751 -60.819426 0.000273 -84.511085 0.000238 3.845405 0.871499 5.445166 -0.000009 -0.001935 0.015972 0.000005 0.001925 -0.015958 0.000001 0.000013 -0.000004 0.000002 -0.000000 0.000002 -1.540039 3.690186 6.142360 3.939033 7.948705 0.746813 -0.579466 1.574999 2.538698 0.000000 0.000000 0.000001 -0.000004 0.000005 0.000004 -0.000009 0.000012 -0.000034 0.000000 0.000008 0.000010 0.000002 -0.000002 -0.000001 -0.000003 0.000001 0.000004 -0.000014 0.000003 -0.000027 0.000002 -0.000001 -0.000003 0.000001 -0.000001 0.000002 -0.018083 4.054255 0.511065 -0.018097 -4.054262 -0.511077 -0.000001 0.000001 -0.000004 -0.000003 -0.000005 -0.000001 0.400322 -4.062717 11.069615 28.980967 19.026691 47.240594 0.000139 77.912016 -0.000136 9.938088 -1.733941 1.354309 -0.000013 0.000020 0.000015 0.000004 -0.000009 -0.000003 0.000005 -0.000009 0.000004 0.000004 0.000001 -0.000001 -1.849259 -3.581773 -6.586118 4.637209 -8.634132 -0.225417 -1.273750 0.137306 -2.094882 -0.000001 -0.000000 0.000001 -0.000004 0.000003 -0.000001 -0.000006 0.000009 0.000030 0.000005 -0.000012 -0.000015 -0.000001 -0.000001 -0.000002 -0.000012 0.000009 0.000013 0.000011 0.000007 0.000035 0.000001 -0.000001 0.000001 0.000001 -0.000001 -0.000001 -0.000007 0.000008 0.000008 -0.000002 0.000006 0.000071 0.000013 0.000001 -0.000017 0.000000 -0.000000 0.000001 -11.208644 6.663674 17.802640 33.647411 -9.242594 -3.856526 -6.797963 -3.936309 -7.605968 -8.318177 0.000007 0.000004 0.000000 0.000000 0.000000 1.336219 -18.902301 -19.199231 26.316581 9.729994 5.195684 -15.044252 -8.593293 7.556779 -3.537671 -0.000001 0.000002 0.000000 -0.000000 -0.000000 
4.618551 191.270233 1.109447 -14.083383 10.167235 2.417313 2.101949 1.692646 -0.743232 4.008212 2.544834 1.096829 3.981073 2.583428 1.100980 10.132563 -1.242870 1.639300 -15.420805 -0.348180 -9.413865 0.000001 0.000000 0.000000 0.000001 0.000000 0.000000 0.000001 0.000000 0.000000 1.116985 -12.273962 -11.626200 36.992578 3.211097 -60.353402 -0.000140 -83.558786 -0.000124 3.892204 0.084369 5.514347 -0.000006 -0.001927 0.015968 0.000010 0.001928 -0.015956 -0.000006 0.000011 -0.000002 -0.000002 -0.000000 0.000003 -1.540034 3.690192 6.142362 3.939030 7.948710 0.746812 -0.579466 1.574996 2.538703 0.000000 0.000001 0.000004 -0.000004 0.000004 -0.000000 -0.000008 0.000018 -0.000034 -0.000002 0.000007 0.000013 -0.000002 0.000001 -0.000000 -0.000004 0.000005 0.000002 -0.000015 -0.000003 -0.000026 0.000004 0.000001 0.000002 0.000000 -0.000000 0.000002 -0.018086 4.054258 0.511065 -0.018098 -4.054259 -0.511075 0.000006 0.000005 -0.000004 0.000002 0.000001 -0.000001 0.343319 -5.154306 10.749634 32.583496 15.584328 50.165455 0.000035 73.766405 -0.000051 8.676311 -0.751138 1.548556 -0.000007 0.000011 0.000018 0.000004 -0.000011 -0.000002 0.000008 -0.000005 -0.000001 0.000003 0.000001 0.000002 -1.849255 -3.581781 -6.586120 4.637211 -8.634139 -0.225418 -1.273747 0.137307 -2.094885 -0.000002 0.000002 0.000001 0.000001 -0.000003 0.000001 -0.000001 0.000009 0.000020 0.000002 -0.000018 -0.000015 -0.000000 0.000003 -0.000003 -0.000007 0.000004 0.000018 0.000011 0.000005 0.000036 0.000005 -0.000004 0.000000 -0.000001 -0.000002 0.000003 -0.000007 0.000005 0.000010 0.000001 0.000008 0.000069 0.000005 0.000002 -0.000018 0.000001 0.000001 -0.000001 -10.551932 7.470008 18.594073 33.586410 -9.186947 -3.887082 -7.086548 -2.568291 -8.223580 -8.563832 -0.000002 -0.000003 0.000000 0.000000 -0.000000 -0.024634 -18.164010 -19.270887 28.108981 9.732443 4.905932 -15.591222 -6.529950 7.299938 -3.476458 0.000001 -0.000006 0.000000 -0.000000 0.000000 
3.369502 191.193512 1.285259 -14.206872 6.798268 1.942826 2.195242 1.366886 -0.787942 4.236212 1.925066 0.983430 4.218746 1.958827 0.986811 10.159473 -0.383294 1.221038 -15.625041 3.936506 -9.008447 0.000001 0.000001 -0.000001 0.000001 0.000001 -0.000001 0.000001 0.000001 -0.000001 1.131351 -12.688857 -11.646802 36.650669 3.207388 -59.997474 -0.000147 -82.647939 -0.000164 4.139486 -0.688277 5.589689 -0.000008 -0.001936 0.015969 0.000011 0.001921 -0.015954 -0.000003 0.000008 -0.000003 0.000001 0.000000 0.000001 -1.540034 3.690185 6.142362 3.939035 7.948704 0.746809 -0.579462 1.575001 2.538707 -0.000002 -0.000001 0.000005 -0.000006 -0.000003 0.000004 -0.000008 0.000012 -0.000035 0.000005 0.000006 0.000011 0.000001 0.000001 -0.000001 -0.000005 0.000000 0.000001 -0.000014 0.000001 -0.000027 0.000004 -0.000003 0.000001 0.000003 0.000005 0.000002 -0.018084 4.054253 0.511068 -0.018096 -4.054262 -0.511074 -0.000002 0.000002 -0.000004 -0.000001 0.000001 -0.000001 0.335291 -6.158288 10.526999 34.312972 13.107772 52.467836 -0.000089 72.502376 0.000099 8.205404 -0.200201 1.650766 -0.000009 0.000010 0.000015 0.000009 -0.000010 0.000003 0.000003 -0.000003 -0.000003 0.000000 -0.000002 0.000005 -1.849260 -3.581778 -6.586119 4.637214 -8.634137 -0.225418 -1.273754 0.137307 -2.094887 0.000001 -0.000001 -0.000001 -0.000004 -0.000001 0.000001 0.000001 0.000007 0.000029 0.000001 -0.000015 -0.000019 -0.000002 0.000002 -0.000000 -0.000013 0.000003 0.000016 0.000013 0.000004 0.000033 -0.000003 -0.000002 -0.000003 0.000002 0.000002 0.000000 -0.000008 0.000005 0.000011 0.000001 0.000006 0.000067 0.000011 0.000004 -0.000017 0.000000 -0.000002 0.000003 -8.993956 8.301637 19.162200 32.775592 -9.108570 -4.099118 -7.215377 -0.128538 -8.971748 -9.046268 0.000003 -0.000003 -0.000000 -0.000000 0.000000 -1.337396 -17.127910 -19.395249 29.609078 9.746753 4.617718 -15.906761 -3.901434 7.015889 -3.406313 -0.000002 0.000001 0.000000 0.000000 -0.000000 
